# xmcd
#
# Track frame offsets: 
#        150
#        35610
#        55825
#        69812
#        82275
#        113337
#        139012
#        153095
#        170480
#
# Disc length: 2459 seconds
#
# Revision: 0
# Processed by: cddbd v1.5.2PL0 Copyright (c) Steve Scherf et al.
# Submitted via: ExactAudioCopy v0.95b4
#
DISCID=6b099909
DTITLE=The Futures - Castles In The Sky
DYEAR=1975
DGENRE=R&B
TTITLE0=Castles
TTITLE1=(Love Lives On A) Windy Hill
TTITLE2=Don't Close The Book
TTITLE3=Super Love
TTITLE4=I Had A Dream
TTITLE5=Every Man Is God (But God Is The King)
TTITLE6=Do Unto Others
TTITLE7=Love Will Be Around Forever
TTITLE8=Ninety Days (In The House Of Love Correction) 
EXTD=
EXTT0=
EXTT1=
EXTT2=
EXTT3=
EXTT4=
EXTT5=
EXTT6=
EXTT7=
EXTT8=
PLAYORDER=
